<svg xmlns="http://www.w3.org/2000/svg" width="288" height="288" viewBox="0 0 288 288">
<rect width="288" height="288" fill="#151923"/>
<rect x="8" y="8" width="272" height="272" rx="54" fill="#243451" stroke="none" stroke-width="2"/>
<rect x="44" y="80" width="200.20000000000002" height="127.4" rx="16.38" fill="none" stroke="#f5f7ff" stroke-width="6"/>
<rect x="66.75" y="102.75" width="18.200000000000003" height="16.379999999999995" rx="2.73" fill="#f5f7ff" stroke="none" stroke-width="2"/>
<rect x="100.42" y="102.75" width="18.200000000000003" height="16.379999999999995" rx="2.73" fill="#f5f7ff" stroke="none" stroke-width="2"/>
<rect x="134.09" y="102.75" width="18.200000000000017" height="16.379999999999995" rx="2.73" fill="#f5f7ff" stroke="none" stroke-width="2"/>
<rect x="167.76" y="102.75" width="18.200000000000017" height="16.379999999999995" rx="2.73" fill="#f5f7ff" stroke="none" stroke-width="2"/>
<rect x="201.43" y="102.75" width="18.19999999999999" height="16.379999999999995" rx="2.73" fill="#f5f7ff" stroke="none" stroke-width="2"/>
<rect x="66.75" y="131.87" width="18.200000000000003" height="16.379999999999995" rx="2.73" fill="#f5f7ff" stroke="none" stroke-width="2"/>
<rect x="100.42" y="131.87" width="18.200000000000003" height="16.379999999999995" rx="2.73" fill="#f5f7ff" stroke="none" stroke-width="2"/>
<rect x="134.09" y="131.87" width="18.200000000000017" height="16.379999999999995" rx="2.73" fill="#f5f7ff" stroke="none" stroke-width="2"/>
<rect x="167.76" y="131.87" width="18.200000000000017" height="16.379999999999995" rx="2.73" fill="#f5f7ff" stroke="none" stroke-width="2"/>
<rect x="201.43" y="131.87" width="18.19999999999999" height="16.379999999999995" rx="2.73" fill="#f5f7ff" stroke="none" stroke-width="2"/>
<rect x="94.96000000000001" y="162.81" width="98.28" height="16.379999999999995" rx="2.73" fill="#f5f7ff" stroke="none" stroke-width="2"/>
</svg>